<mxfile host="app.diagrams.net" agent="Mozilla/5.0 (Windows NT 10.0; Win64; x64) AppleWebKit/537.36 (KHTML, like Gecko) Chrome/131.0.0.0 Safari/537.36" version="25.0.3">
  <diagram id="C5RBs43oDa-KdzZeNtuy" name="Page-1">
    <mxGraphModel dx="880" dy="434" grid="1" gridSize="10" guides="1" tooltips="1" connect="1" arrows="1" fold="1" page="1" pageScale="1" pageWidth="827" pageHeight="1169" math="0" shadow="0">
      <root>
        <mxCell id="WIyWlLk6GJQsqaUBKTNV-0" />
        <mxCell id="WIyWlLk6GJQsqaUBKTNV-1" parent="WIyWlLk6GJQsqaUBKTNV-0" />
        <mxCell id="N_ATVft75akDLZwGpv0E-34" style="edgeStyle=orthogonalEdgeStyle;rounded=0;orthogonalLoop=1;jettySize=auto;html=1;" edge="1" parent="WIyWlLk6GJQsqaUBKTNV-1" source="N_ATVft75akDLZwGpv0E-0" target="N_ATVft75akDLZwGpv0E-32">
          <mxGeometry relative="1" as="geometry" />
        </mxCell>
        <mxCell id="N_ATVft75akDLZwGpv0E-0" value="Inicio" style="ellipse;whiteSpace=wrap;html=1;" vertex="1" parent="WIyWlLk6GJQsqaUBKTNV-1">
          <mxGeometry x="335" width="90" height="40" as="geometry" />
        </mxCell>
        <mxCell id="N_ATVft75akDLZwGpv0E-13" value="Fin" style="ellipse;whiteSpace=wrap;html=1;" vertex="1" parent="WIyWlLk6GJQsqaUBKTNV-1">
          <mxGeometry x="200.09000000000003" y="1129" width="100" height="40" as="geometry" />
        </mxCell>
        <mxCell id="N_ATVft75akDLZwGpv0E-100" style="edgeStyle=orthogonalEdgeStyle;rounded=0;orthogonalLoop=1;jettySize=auto;html=1;entryX=0.5;entryY=0;entryDx=0;entryDy=0;" edge="1" parent="WIyWlLk6GJQsqaUBKTNV-1" source="N_ATVft75akDLZwGpv0E-32" target="N_ATVft75akDLZwGpv0E-86">
          <mxGeometry relative="1" as="geometry" />
        </mxCell>
        <mxCell id="N_ATVft75akDLZwGpv0E-32" value="Definir hora, minutos, seg Como Entero" style="rounded=0;whiteSpace=wrap;html=1;" vertex="1" parent="WIyWlLk6GJQsqaUBKTNV-1">
          <mxGeometry x="236.38" y="60" width="287.21" height="30" as="geometry" />
        </mxCell>
        <mxCell id="N_ATVft75akDLZwGpv0E-90" style="edgeStyle=orthogonalEdgeStyle;rounded=0;orthogonalLoop=1;jettySize=auto;html=1;entryX=0.5;entryY=0;entryDx=0;entryDy=0;" edge="1" parent="WIyWlLk6GJQsqaUBKTNV-1" source="N_ATVft75akDLZwGpv0E-86" target="N_ATVft75akDLZwGpv0E-88">
          <mxGeometry relative="1" as="geometry" />
        </mxCell>
        <mxCell id="N_ATVft75akDLZwGpv0E-86" value="Escribir &quot;Ingrese la hora (0-23): &quot;" style="shape=parallelogram;perimeter=parallelogramPerimeter;whiteSpace=wrap;html=1;fixedSize=1;" vertex="1" parent="WIyWlLk6GJQsqaUBKTNV-1">
          <mxGeometry x="252.82999999999998" y="110" width="254.37" height="30" as="geometry" />
        </mxCell>
        <mxCell id="N_ATVft75akDLZwGpv0E-130" value="" style="edgeStyle=orthogonalEdgeStyle;rounded=0;orthogonalLoop=1;jettySize=auto;html=1;" edge="1" parent="WIyWlLk6GJQsqaUBKTNV-1" source="N_ATVft75akDLZwGpv0E-88" target="N_ATVft75akDLZwGpv0E-129">
          <mxGeometry relative="1" as="geometry" />
        </mxCell>
        <mxCell id="N_ATVft75akDLZwGpv0E-88" value="Leer hora" style="shape=manualInput;whiteSpace=wrap;html=1;" vertex="1" parent="WIyWlLk6GJQsqaUBKTNV-1">
          <mxGeometry x="332.48" y="160" width="95" height="70" as="geometry" />
        </mxCell>
        <mxCell id="N_ATVft75akDLZwGpv0E-110" value="" style="edgeStyle=orthogonalEdgeStyle;rounded=0;orthogonalLoop=1;jettySize=auto;html=1;" edge="1" parent="WIyWlLk6GJQsqaUBKTNV-1" source="N_ATVft75akDLZwGpv0E-107" target="N_ATVft75akDLZwGpv0E-109">
          <mxGeometry relative="1" as="geometry" />
        </mxCell>
        <mxCell id="N_ATVft75akDLZwGpv0E-118" style="edgeStyle=orthogonalEdgeStyle;rounded=0;orthogonalLoop=1;jettySize=auto;html=1;entryX=0.5;entryY=0;entryDx=0;entryDy=0;" edge="1" parent="WIyWlLk6GJQsqaUBKTNV-1" source="N_ATVft75akDLZwGpv0E-107" target="N_ATVft75akDLZwGpv0E-139">
          <mxGeometry relative="1" as="geometry">
            <mxPoint x="653.75" y="940" as="targetPoint" />
          </mxGeometry>
        </mxCell>
        <mxCell id="N_ATVft75akDLZwGpv0E-107" value="&amp;nbsp;Si hora &amp;gt;= 0 &amp;amp;&amp;nbsp;&lt;div&gt;hora &amp;lt;= 23 &amp;amp; minutos &amp;gt;= 0 &amp;amp;&amp;nbsp;&lt;div&gt;minutos &amp;lt;= 59 &amp;amp; seg &amp;gt;= 0 &amp;amp;&amp;nbsp;&lt;/div&gt;&lt;div&gt;seg &amp;lt;= 59 Entonces&lt;/div&gt;&lt;/div&gt;" style="rhombus;whiteSpace=wrap;html=1;" vertex="1" parent="WIyWlLk6GJQsqaUBKTNV-1">
          <mxGeometry x="241.85" y="530" width="276.27" height="140" as="geometry" />
        </mxCell>
        <mxCell id="N_ATVft75akDLZwGpv0E-141" value="" style="edgeStyle=orthogonalEdgeStyle;rounded=0;orthogonalLoop=1;jettySize=auto;html=1;exitX=0.5;exitY=1;exitDx=0;exitDy=0;" edge="1" parent="WIyWlLk6GJQsqaUBKTNV-1" source="N_ATVft75akDLZwGpv0E-109" target="N_ATVft75akDLZwGpv0E-140">
          <mxGeometry relative="1" as="geometry">
            <Array as="points">
              <mxPoint x="380" y="760" />
            </Array>
          </mxGeometry>
        </mxCell>
        <mxCell id="N_ATVft75akDLZwGpv0E-109" value="&amp;nbsp;seg &amp;lt;- seg + 1" style="whiteSpace=wrap;html=1;" vertex="1" parent="WIyWlLk6GJQsqaUBKTNV-1">
          <mxGeometry x="314.96000000000004" y="690" width="130.03" height="30" as="geometry" />
        </mxCell>
        <mxCell id="N_ATVft75akDLZwGpv0E-115" value="SI" style="text;html=1;align=center;verticalAlign=middle;resizable=0;points=[];autosize=1;strokeColor=none;fillColor=none;" vertex="1" parent="WIyWlLk6GJQsqaUBKTNV-1">
          <mxGeometry x="384" y="660" width="30" height="30" as="geometry" />
        </mxCell>
        <mxCell id="N_ATVft75akDLZwGpv0E-119" value="NO" style="text;html=1;align=center;verticalAlign=middle;resizable=0;points=[];autosize=1;strokeColor=none;fillColor=none;" vertex="1" parent="WIyWlLk6GJQsqaUBKTNV-1">
          <mxGeometry x="730" y="600" width="40" height="30" as="geometry" />
        </mxCell>
        <mxCell id="N_ATVft75akDLZwGpv0E-132" style="edgeStyle=orthogonalEdgeStyle;rounded=0;orthogonalLoop=1;jettySize=auto;html=1;entryX=0.5;entryY=0;entryDx=0;entryDy=0;" edge="1" parent="WIyWlLk6GJQsqaUBKTNV-1" source="N_ATVft75akDLZwGpv0E-129" target="N_ATVft75akDLZwGpv0E-131">
          <mxGeometry relative="1" as="geometry" />
        </mxCell>
        <mxCell id="N_ATVft75akDLZwGpv0E-129" value="Escribir &quot;Ingrese los minutos (0-59): &quot;" style="shape=parallelogram;perimeter=parallelogramPerimeter;whiteSpace=wrap;html=1;fixedSize=1;" vertex="1" parent="WIyWlLk6GJQsqaUBKTNV-1">
          <mxGeometry x="250.02" y="250" width="259.98" height="30" as="geometry" />
        </mxCell>
        <mxCell id="N_ATVft75akDLZwGpv0E-134" value="" style="edgeStyle=orthogonalEdgeStyle;rounded=0;orthogonalLoop=1;jettySize=auto;html=1;" edge="1" parent="WIyWlLk6GJQsqaUBKTNV-1" source="N_ATVft75akDLZwGpv0E-131" target="N_ATVft75akDLZwGpv0E-133">
          <mxGeometry relative="1" as="geometry" />
        </mxCell>
        <mxCell id="N_ATVft75akDLZwGpv0E-131" value="Leer minutos" style="shape=manualInput;whiteSpace=wrap;html=1;" vertex="1" parent="WIyWlLk6GJQsqaUBKTNV-1">
          <mxGeometry x="314.97" y="300" width="130.02" height="70" as="geometry" />
        </mxCell>
        <mxCell id="N_ATVft75akDLZwGpv0E-136" style="edgeStyle=orthogonalEdgeStyle;rounded=0;orthogonalLoop=1;jettySize=auto;html=1;" edge="1" parent="WIyWlLk6GJQsqaUBKTNV-1" source="N_ATVft75akDLZwGpv0E-133" target="N_ATVft75akDLZwGpv0E-135">
          <mxGeometry relative="1" as="geometry" />
        </mxCell>
        <mxCell id="N_ATVft75akDLZwGpv0E-133" value="Escribir &quot;Ingrese los segundos (0-59): &quot;" style="shape=parallelogram;perimeter=parallelogramPerimeter;whiteSpace=wrap;html=1;fixedSize=1;" vertex="1" parent="WIyWlLk6GJQsqaUBKTNV-1">
          <mxGeometry x="237.16" y="390" width="286.43" height="30" as="geometry" />
        </mxCell>
        <mxCell id="N_ATVft75akDLZwGpv0E-138" style="edgeStyle=orthogonalEdgeStyle;rounded=0;orthogonalLoop=1;jettySize=auto;html=1;entryX=0.5;entryY=0;entryDx=0;entryDy=0;" edge="1" parent="WIyWlLk6GJQsqaUBKTNV-1" source="N_ATVft75akDLZwGpv0E-135" target="N_ATVft75akDLZwGpv0E-107">
          <mxGeometry relative="1" as="geometry" />
        </mxCell>
        <mxCell id="N_ATVft75akDLZwGpv0E-135" value="&amp;nbsp;Leer seg" style="shape=manualInput;whiteSpace=wrap;html=1;" vertex="1" parent="WIyWlLk6GJQsqaUBKTNV-1">
          <mxGeometry x="327.47999999999996" y="440" width="105" height="65" as="geometry" />
        </mxCell>
        <mxCell id="N_ATVft75akDLZwGpv0E-169" style="edgeStyle=orthogonalEdgeStyle;rounded=0;orthogonalLoop=1;jettySize=auto;html=1;exitX=1;exitY=0.5;exitDx=0;exitDy=0;entryX=1;entryY=0.5;entryDx=0;entryDy=0;" edge="1" parent="WIyWlLk6GJQsqaUBKTNV-1" source="N_ATVft75akDLZwGpv0E-139" target="N_ATVft75akDLZwGpv0E-13">
          <mxGeometry relative="1" as="geometry">
            <Array as="points">
              <mxPoint x="1300" y="650" />
              <mxPoint x="1300" y="1150" />
            </Array>
          </mxGeometry>
        </mxCell>
        <mxCell id="N_ATVft75akDLZwGpv0E-139" value="&amp;nbsp;Escribir &quot;Valores ingresados no vÃ¡lidos.&quot;" style="shape=parallelogram;perimeter=parallelogramPerimeter;whiteSpace=wrap;html=1;fixedSize=1;" vertex="1" parent="WIyWlLk6GJQsqaUBKTNV-1">
          <mxGeometry x="1010" y="630" width="286.25" height="40" as="geometry" />
        </mxCell>
        <mxCell id="N_ATVft75akDLZwGpv0E-143" value="" style="edgeStyle=orthogonalEdgeStyle;rounded=0;orthogonalLoop=1;jettySize=auto;html=1;" edge="1" parent="WIyWlLk6GJQsqaUBKTNV-1" source="N_ATVft75akDLZwGpv0E-140" target="N_ATVft75akDLZwGpv0E-142">
          <mxGeometry relative="1" as="geometry" />
        </mxCell>
        <mxCell id="N_ATVft75akDLZwGpv0E-171" style="edgeStyle=orthogonalEdgeStyle;rounded=0;orthogonalLoop=1;jettySize=auto;html=1;exitX=0.5;exitY=0;exitDx=0;exitDy=0;entryX=0.5;entryY=1;entryDx=0;entryDy=0;" edge="1" parent="WIyWlLk6GJQsqaUBKTNV-1" source="N_ATVft75akDLZwGpv0E-140" target="N_ATVft75akDLZwGpv0E-139">
          <mxGeometry relative="1" as="geometry" />
        </mxCell>
        <mxCell id="N_ATVft75akDLZwGpv0E-140" value="Si seg = 60 Entonces" style="rhombus;whiteSpace=wrap;html=1;" vertex="1" parent="WIyWlLk6GJQsqaUBKTNV-1">
          <mxGeometry x="523.59" y="730" width="215.03" height="60" as="geometry" />
        </mxCell>
        <mxCell id="N_ATVft75akDLZwGpv0E-145" value="" style="edgeStyle=orthogonalEdgeStyle;rounded=0;orthogonalLoop=1;jettySize=auto;html=1;" edge="1" parent="WIyWlLk6GJQsqaUBKTNV-1" source="N_ATVft75akDLZwGpv0E-142" target="N_ATVft75akDLZwGpv0E-144">
          <mxGeometry relative="1" as="geometry" />
        </mxCell>
        <mxCell id="N_ATVft75akDLZwGpv0E-142" value="seg &amp;lt;- 0" style="whiteSpace=wrap;html=1;" vertex="1" parent="WIyWlLk6GJQsqaUBKTNV-1">
          <mxGeometry x="820" y="806.25" width="100.02" height="23.75" as="geometry" />
        </mxCell>
        <mxCell id="N_ATVft75akDLZwGpv0E-150" value="" style="edgeStyle=orthogonalEdgeStyle;rounded=0;orthogonalLoop=1;jettySize=auto;html=1;" edge="1" parent="WIyWlLk6GJQsqaUBKTNV-1" source="N_ATVft75akDLZwGpv0E-144" target="N_ATVft75akDLZwGpv0E-149">
          <mxGeometry relative="1" as="geometry" />
        </mxCell>
        <mxCell id="N_ATVft75akDLZwGpv0E-144" value="minutos &amp;lt;- minutos + 1" style="whiteSpace=wrap;html=1;" vertex="1" parent="WIyWlLk6GJQsqaUBKTNV-1">
          <mxGeometry x="950" y="800.9300000000001" width="149.63" height="34.38" as="geometry" />
        </mxCell>
        <mxCell id="N_ATVft75akDLZwGpv0E-147" value="NO" style="text;html=1;align=center;verticalAlign=middle;resizable=0;points=[];autosize=1;strokeColor=none;fillColor=none;" vertex="1" parent="WIyWlLk6GJQsqaUBKTNV-1">
          <mxGeometry x="630.0000000000001" y="700" width="40" height="30" as="geometry" />
        </mxCell>
        <mxCell id="N_ATVft75akDLZwGpv0E-148" value="SI" style="text;html=1;align=center;verticalAlign=middle;resizable=0;points=[];autosize=1;strokeColor=none;fillColor=none;" vertex="1" parent="WIyWlLk6GJQsqaUBKTNV-1">
          <mxGeometry x="760" y="730" width="30" height="30" as="geometry" />
        </mxCell>
        <mxCell id="N_ATVft75akDLZwGpv0E-152" value="" style="edgeStyle=orthogonalEdgeStyle;rounded=0;orthogonalLoop=1;jettySize=auto;html=1;" edge="1" parent="WIyWlLk6GJQsqaUBKTNV-1" source="N_ATVft75akDLZwGpv0E-149" target="N_ATVft75akDLZwGpv0E-151">
          <mxGeometry relative="1" as="geometry" />
        </mxCell>
        <mxCell id="N_ATVft75akDLZwGpv0E-155" style="edgeStyle=orthogonalEdgeStyle;rounded=0;orthogonalLoop=1;jettySize=auto;html=1;exitX=1;exitY=0.5;exitDx=0;exitDy=0;entryX=0.5;entryY=1;entryDx=0;entryDy=0;" edge="1" parent="WIyWlLk6GJQsqaUBKTNV-1" source="N_ATVft75akDLZwGpv0E-149" target="N_ATVft75akDLZwGpv0E-139">
          <mxGeometry relative="1" as="geometry" />
        </mxCell>
        <mxCell id="N_ATVft75akDLZwGpv0E-149" value="Si minutos = 60 Entonces" style="rhombus;whiteSpace=wrap;html=1;" vertex="1" parent="WIyWlLk6GJQsqaUBKTNV-1">
          <mxGeometry x="930.01" y="910" width="189.62" height="68.43" as="geometry" />
        </mxCell>
        <mxCell id="N_ATVft75akDLZwGpv0E-154" value="" style="edgeStyle=orthogonalEdgeStyle;rounded=0;orthogonalLoop=1;jettySize=auto;html=1;" edge="1" parent="WIyWlLk6GJQsqaUBKTNV-1" source="N_ATVft75akDLZwGpv0E-151" target="N_ATVft75akDLZwGpv0E-153">
          <mxGeometry relative="1" as="geometry" />
        </mxCell>
        <mxCell id="N_ATVft75akDLZwGpv0E-151" value="minutos &amp;lt;- 0" style="whiteSpace=wrap;html=1;" vertex="1" parent="WIyWlLk6GJQsqaUBKTNV-1">
          <mxGeometry x="738.62" y="925.5299999999999" width="120.02" height="37.36" as="geometry" />
        </mxCell>
        <mxCell id="N_ATVft75akDLZwGpv0E-158" value="" style="edgeStyle=orthogonalEdgeStyle;rounded=0;orthogonalLoop=1;jettySize=auto;html=1;" edge="1" parent="WIyWlLk6GJQsqaUBKTNV-1" source="N_ATVft75akDLZwGpv0E-153" target="N_ATVft75akDLZwGpv0E-157">
          <mxGeometry relative="1" as="geometry" />
        </mxCell>
        <mxCell id="N_ATVft75akDLZwGpv0E-153" value="hora &amp;lt;- hora + 1" style="whiteSpace=wrap;html=1;" vertex="1" parent="WIyWlLk6GJQsqaUBKTNV-1">
          <mxGeometry x="540" y="927.23" width="120.01" height="33.96" as="geometry" />
        </mxCell>
        <mxCell id="N_ATVft75akDLZwGpv0E-156" value="NO" style="text;html=1;align=center;verticalAlign=middle;resizable=0;points=[];autosize=1;strokeColor=none;fillColor=none;" vertex="1" parent="WIyWlLk6GJQsqaUBKTNV-1">
          <mxGeometry x="1110" y="910" width="40" height="30" as="geometry" />
        </mxCell>
        <mxCell id="N_ATVft75akDLZwGpv0E-162" style="edgeStyle=orthogonalEdgeStyle;rounded=0;orthogonalLoop=1;jettySize=auto;html=1;entryX=0.5;entryY=0;entryDx=0;entryDy=0;" edge="1" parent="WIyWlLk6GJQsqaUBKTNV-1" source="N_ATVft75akDLZwGpv0E-157" target="N_ATVft75akDLZwGpv0E-159">
          <mxGeometry relative="1" as="geometry" />
        </mxCell>
        <mxCell id="N_ATVft75akDLZwGpv0E-172" style="edgeStyle=orthogonalEdgeStyle;rounded=0;orthogonalLoop=1;jettySize=auto;html=1;entryX=0.5;entryY=1;entryDx=0;entryDy=0;" edge="1" parent="WIyWlLk6GJQsqaUBKTNV-1" source="N_ATVft75akDLZwGpv0E-157" target="N_ATVft75akDLZwGpv0E-139">
          <mxGeometry relative="1" as="geometry">
            <Array as="points">
              <mxPoint x="378" y="1030" />
              <mxPoint x="1153" y="1030" />
            </Array>
          </mxGeometry>
        </mxCell>
        <mxCell id="N_ATVft75akDLZwGpv0E-157" value="Si hora = 24 Entonces" style="rhombus;whiteSpace=wrap;html=1;" vertex="1" parent="WIyWlLk6GJQsqaUBKTNV-1">
          <mxGeometry x="322.86" y="899.6800000000001" width="109.62" height="89.06" as="geometry" />
        </mxCell>
        <mxCell id="N_ATVft75akDLZwGpv0E-167" value="" style="edgeStyle=orthogonalEdgeStyle;rounded=0;orthogonalLoop=1;jettySize=auto;html=1;" edge="1" parent="WIyWlLk6GJQsqaUBKTNV-1" source="N_ATVft75akDLZwGpv0E-159" target="N_ATVft75akDLZwGpv0E-166">
          <mxGeometry relative="1" as="geometry" />
        </mxCell>
        <mxCell id="N_ATVft75akDLZwGpv0E-159" value="hora &amp;lt;- 0" style="whiteSpace=wrap;html=1;" vertex="1" parent="WIyWlLk6GJQsqaUBKTNV-1">
          <mxGeometry x="210" y="970" width="80.19" height="25.47" as="geometry" />
        </mxCell>
        <mxCell id="N_ATVft75akDLZwGpv0E-163" value="SI" style="text;html=1;align=center;verticalAlign=middle;resizable=0;points=[];autosize=1;strokeColor=none;fillColor=none;" vertex="1" parent="WIyWlLk6GJQsqaUBKTNV-1">
          <mxGeometry x="297.48" y="920" width="30" height="30" as="geometry" />
        </mxCell>
        <mxCell id="N_ATVft75akDLZwGpv0E-165" value="NO" style="text;html=1;align=center;verticalAlign=middle;resizable=0;points=[];autosize=1;strokeColor=none;fillColor=none;" vertex="1" parent="WIyWlLk6GJQsqaUBKTNV-1">
          <mxGeometry x="379" y="1000" width="40" height="30" as="geometry" />
        </mxCell>
        <mxCell id="N_ATVft75akDLZwGpv0E-168" style="edgeStyle=orthogonalEdgeStyle;rounded=0;orthogonalLoop=1;jettySize=auto;html=1;entryX=0.5;entryY=0;entryDx=0;entryDy=0;" edge="1" parent="WIyWlLk6GJQsqaUBKTNV-1" source="N_ATVft75akDLZwGpv0E-166" target="N_ATVft75akDLZwGpv0E-13">
          <mxGeometry relative="1" as="geometry" />
        </mxCell>
        <mxCell id="N_ATVft75akDLZwGpv0E-166" value="&amp;nbsp;Escribir &quot;La hora siguiente es: &quot;, hora, &quot;:&quot;, minutos, &quot;:&quot;, seg" style="shape=parallelogram;perimeter=parallelogramPerimeter;whiteSpace=wrap;html=1;fixedSize=1;" vertex="1" parent="WIyWlLk6GJQsqaUBKTNV-1">
          <mxGeometry x="60.08000000000001" y="1050" width="380.02" height="40" as="geometry" />
        </mxCell>
        <mxCell id="N_ATVft75akDLZwGpv0E-170" value="SI" style="text;html=1;align=center;verticalAlign=middle;resizable=0;points=[];autosize=1;strokeColor=none;fillColor=none;" vertex="1" parent="WIyWlLk6GJQsqaUBKTNV-1">
          <mxGeometry x="900.01" y="920" width="30" height="30" as="geometry" />
        </mxCell>
      </root>
    </mxGraphModel>
  </diagram>
</mxfile>
